<?xml version="1.0" ?>

<!-- Uploaded to: SVG Repo, www.svgrepo.com, Generator: SVG Repo Mixer Tools -->
<svg fill="black" width="22px" height="22px" viewBox="0 0 64 64" id="Layer_1" version="1.1" xml:space="preserve" xmlns="http://www.w3.org/2000/svg" xmlns:xlink="http://www.w3.org/1999/xlink">

<g>

<path d="M53.2,41.6c1-1.1,1.6-2.5,1.6-4c0-3.2-2.6-5.9-5.9-5.9H17.3C9.4,31.7,3,38.1,3,46s6.4,14.3,14.3,14.3h34.2   c5.2,0,9.4-4.2,9.4-9.4C61,46.2,57.6,42.4,53.2,41.6z M51.6,58.3H17.3C10.5,58.3,5,52.8,5,46s5.5-12.3,12.3-12.3h31.6   c2.1,0,3.9,1.7,3.9,3.9c0,2.1-1.7,3.9-3.9,3.9H16.4v0c-2.5,0.2-4.6,2.4-4.6,5c0,2.8,2.2,5,5,5h29.3v-2H16.9c-1.7,0-3-1.3-3-3   s1.3-3,3-3h34.7c4.1,0,7.4,3.3,7.4,7.4S55.7,58.3,51.6,58.3z"/>

</g>

</svg>