<?xml version="1.0" ?>
<!-- Uploaded to: SVG Repo, www.svgrepo.com, Generator: SVG Repo Mixer Tools -->
<svg fill="black" width="22px" height="22px" viewBox="0 -0.08 20 20" data-name="Capa 1" id="Capa_1" xmlns="http://www.w3.org/2000/svg">
    <path d="M10.26,4.74a.3.3,0,0,0-.3-.3H8.18a.29.29,0,0,0-.3.3.3.3,0,0,0,.3.3H10A.31.31,0,0,0,10.26,4.74Z"/>
    <path d="M15.16,7.86h-.23a1.66,1.66,0,0,0-1.32-1.37V6.21a.31.31,0,0,0-.3-.3.3.3,0,0,0-.3.3v.28a1.65,1.65,0,0,0-1.34,1.37h-.2a.31.31,0,0,0-.3.3.3.3,0,0,0,.3.3h.21A1.68,1.68,0,0,0,13,9.74V10a.3.3,0,0,0,.3.3.31.31,0,0,0,.3-.3V9.73a1.63,1.63,0,0,0,1.3-1.27h.25a.29.29,0,0,0,.3-.3A.3.3,0,0,0,15.16,7.86ZM13.58,9.11a.28.28,0,0,0-.55,0,1,1,0,0,1-.71-.65.3.3,0,0,0,0-.6h0A1,1,0,0,1,13,7.11a.28.28,0,0,0,.55,0,1.06,1.06,0,0,1,.73.76.29.29,0,0,0-.28.29.28.28,0,0,0,.26.28A1.06,1.06,0,0,1,13.58,9.11Z"/>
    <path d="M13.3,10.75a.29.29,0,0,0-.3.3v4.27a.83.83,0,0,1-.83.83H6a.83.83,0,0,1-.83-.83V4.52A.83.83,0,0,1,6,3.69h6.2a.83.83,0,0,1,.83.83v.61a.3.3,0,0,0,.3.3.31.31,0,0,0,.3-.3V4.52a1.43,1.43,0,0,0-1.43-1.43H6A1.43,1.43,0,0,0,4.54,4.52v10.8A1.43,1.43,0,0,0,6,16.75h6.2a1.43,1.43,0,0,0,1.43-1.43V11.05A.3.3,0,0,0,13.3,10.75Z"/>
    <path d="M8.42,14.57a.74.74,0,1,0,.74-.73A.74.74,0,0,0,8.42,14.57Zm.94,0a.2.2,0,0,1-.2.21A.21.21,0,0,1,9,14.57a.2.2,0,0,1,.21-.2A.2.2,0,0,1,9.36,14.57Z"/>
</svg>