<?xml version="1.0" encoding="iso-8859-1"?>
<!-- Uploaded to: SVG Repo, www.svgrepo.com, Generator: SVG Repo Mixer Tools -->
<svg fill="black" height="22px" width="22px" version="1.1" id="Layer_1" xmlns="http://www.w3.org/2000/svg" xmlns:xlink="http://www.w3.org/1999/xlink" 
	 viewBox="0 0 512.002 512.002" xml:space="preserve">
<g>
	<g>
		<g>
			<path d="M486.401,238.937h-25.6v-17.068c0-9.43-7.642-17.067-17.067-17.067h-3.292c-17.652-36.164-22.308-74.155-22.308-145.068
				C418.134,26.724,391.41,0,358.401,0c-23.58,0-42.667,19.087-42.667,42.667c0,23.589-19.08,42.667-42.667,42.667
				c-14.154,0-25.6-11.446-25.6-25.6C247.468,26.724,220.744,0,187.734,0c-20.658,0-37.866,14.65-41.814,34.137h-43.52
				c-4.713,0-8.533,3.82-8.533,8.533v76.8H25.601c-4.713,0-8.533,3.82-8.533,8.533V401.07c0,4.713,3.82,8.533,8.533,8.533h17.067
				v42.667c0,4.713,3.821,8.533,8.533,8.533v17.065c0,18.853,15.281,34.133,34.133,34.133c18.853,0,34.133-15.281,34.133-34.133
				v-17.065c4.713,0,8.533-3.82,8.533-8.533v-42.667h51.2v42.667c0,4.713,3.82,8.533,8.533,8.533v17.065
				c0,18.853,15.281,34.133,34.133,34.133c18.853,0,34.133-15.281,34.133-34.133v-17.065c4.713,0,8.533-3.82,8.533-8.533v-42.667
				h17.067c4.713,0,8.533-3.82,8.533-8.533V128.003c0-4.713-3.821-8.533-8.533-8.533h-68.267v-76.8c0-4.713-3.82-8.533-8.533-8.533
				h-41.209c3.509-9.95,12.981-17.07,24.143-17.07c23.584,0,42.667,19.083,42.667,42.667c0,23.58,19.087,42.667,42.667,42.667
				c33.012,0,59.733-26.718,59.733-59.733c0-14.154,11.446-25.6,25.6-25.6c23.584,0,42.667,19.083,42.667,42.667
				c0,69.167,4.355,108.693,20.852,145.751c-7.113,2.057-12.319,8.604-12.319,16.384v17.068h-25.6c-4.713,0-8.533,3.82-8.533,8.533
				v102.4c0,4.713,3.82,8.533,8.533,8.533h8.533v42.665c0,14.134,11.466,25.6,25.6,25.6h34.133c14.134,0,25.6-11.466,25.6-25.6
				v-42.665h8.533c4.713,0,8.533-3.82,8.533-8.533v-102.4C494.934,242.757,491.114,238.937,486.401,238.937z M102.401,477.868
				c0,9.427-7.64,17.067-17.067,17.067c-9.427,0-17.067-7.64-17.067-17.067v-17.065h34.133V477.868z M110.934,443.735h-51.2v-34.132
				h51.2V443.735z M238.934,477.868c0,9.427-7.64,17.067-17.067,17.067c-9.427,0-17.067-7.64-17.067-17.067v-17.065h34.133V477.868z
				 M247.468,443.735h-51.2v-34.132h51.2V443.735z M273.068,392.537h-17.067h-68.267h-68.267H51.201H34.134v-256h68.267h102.4
				h68.267V392.537z M196.268,119.47h-85.333V51.203h85.333V119.47z M434.431,221.868c0.521,0.048,1.048,0.05,1.576,0h7.728v17.067
				h-17.067v-17.067H434.431z M460.801,401.068c0,4.708-3.825,8.533-8.533,8.533h-34.133c-4.708,0-8.533-3.825-8.533-8.533v-42.665
				h51.2V401.068z M477.868,341.337h-8.5c-0.011,0-0.022-0.002-0.034-0.002h-68.267c-0.011,0-0.022,0.002-0.034,0.002h-8.5v-85.333
				h85.333V341.337z"/>
			<path d="M426.668,401.068h17.067c4.713,0,8.533-3.82,8.533-8.533s-3.82-8.533-8.533-8.533h-17.067
				c-4.713,0-8.533,3.82-8.533,8.533S421.955,401.068,426.668,401.068z"/>
		</g>
	</g>
</g>
</svg>