<?xml version="1.0" encoding="iso-8859-1"?>
<!-- Uploaded to: SVG Repo, www.svgrepo.com, Generator: SVG Repo Mixer Tools -->
<svg fill="black" height="22px" width="22px" version="1.1" id="Layer_1" xmlns="http://www.w3.org/2000/svg" xmlns:xlink="http://www.w3.org/1999/xlink" 
	 viewBox="0 0 512 512" xml:space="preserve">
<g>
	<g>
		<path d="M439.652,200.348H256v-66.783h16.696c9.22,0,16.696-7.475,16.696-16.696s-7.475-16.696-16.696-16.696H256v-2.872
			c19.433-6.892,33.391-25.45,33.391-47.215C289.391,22.469,266.922,0,239.304,0H72.348C44.73,0,22.261,22.469,22.261,50.087
			c0,21.766,13.96,40.323,33.391,47.215v159.533c0,29.901,15.756,56.818,40.14,68.575c16.682,8.044,26.753,21.967,26.753,37.248
			l-0.11,132.647c0,9.22,7.475,16.696,16.696,16.696h200.348c9.218,0,16.693-7.472,16.696-16.69l0.021-65.916
			c0.327-9.468,7.806-16.654,16.882-16.518c0.691,0.009,16.852,0.216,17.543,0.216c36.434,0,66.305-29.408,66.765-65.943
			c0-0.051,0.001-0.102,0.001-0.152l0.17-49.798c18.8-7.22,32.184-25.454,32.184-46.765
			C489.739,222.817,467.27,200.348,439.652,200.348z M72.348,66.783c-9.206,0-16.696-7.49-16.696-16.696s7.49-16.696,16.696-16.696
			h166.957c9.206,0,16.696,7.49,16.696,16.696s-7.49,16.696-16.696,16.696H72.348z M423.995,346.797
			c-0.269,18.481-15.573,33.182-33.808,32.903c-0.516-0.007-16.834-0.215-17.35-0.215c-27.411,0-49.331,21.508-50.029,49.245
			c-0.003,0.138-0.006,0.276-0.006,0.414l-0.014,49.465H155.715l0.111-115.951c0-28.41-17.021-53.58-45.53-67.326
			c-12.91-6.224-21.252-21.335-21.252-38.497V100.174h133.565v150.261c0,27.618,22.469,50.087,50.087,50.087h151.458
			L423.995,346.797z M439.652,267.13H272.696c-9.206,0-16.696-7.49-16.696-16.696v-16.696h183.652
			c9.206,0,16.696,7.49,16.696,16.696C456.348,259.641,448.858,267.13,439.652,267.13z"/>
	</g>
</g>
</svg>