<?xml version="1.0" encoding="iso-8859-1"?>
<!-- Uploaded to: SVG Repo, www.svgrepo.com, Generator: SVG Repo Mixer Tools -->
<svg fill="black" height="22px" width="22px" version="1.1" id="Layer_1" xmlns="http://www.w3.org/2000/svg" xmlns:xlink="http://www.w3.org/1999/xlink" 
	 viewBox="0 0 512 512" xml:space="preserve">
	<g transform="translate(1 1)">
		<g>
			<g>
				<path d="M246.467,212.333h17.067c5.12,0,8.533-3.413,8.533-8.533c0-5.12-3.413-8.533-8.533-8.533h-17.067
				c-5.12,0-8.533,3.413-8.533,8.533C237.933,208.92,241.347,212.333,246.467,212.333z"/>
				<path d="M280.6,229.4h-51.2c-5.12,0-8.533,3.413-8.533,8.533s3.413,8.533,8.533,8.533h51.2c5.12,0,8.533-3.413,8.533-8.533
				S285.72,229.4,280.6,229.4z"/>
				<path d="M135.533,246.467H152.6c5.12,0,8.533-3.413,8.533-8.533s-3.413-8.533-8.533-8.533h-17.067
				c-5.12,0-8.533,3.413-8.533,8.533S130.413,246.467,135.533,246.467z"/>
				<path d="M169.667,263.533h-51.2c-5.12,0-8.533,3.413-8.533,8.533c0,5.12,3.413,8.533,8.533,8.533h51.2
				c5.12,0,8.533-3.413,8.533-8.533C178.2,266.947,174.787,263.533,169.667,263.533z"/>
				<path d="M357.4,246.467h17.067c5.12,0,8.533-3.413,8.533-8.533s-3.413-8.533-8.533-8.533H357.4c-5.12,0-8.533,3.413-8.533,8.533
				S352.28,246.467,357.4,246.467z"/>
				<path d="M340.333,280.6h51.2c5.12,0,8.533-3.413,8.533-8.533c0-5.12-3.413-8.533-8.533-8.533h-51.2
				c-5.12,0-8.533,3.413-8.533,8.533C331.8,277.187,335.213,280.6,340.333,280.6z"/>
				<path d="M144.067,468.333H127c-5.12,0-8.533-3.413-8.533-8.533v-17.067c0-5.12-3.413-8.533-8.533-8.533
				c-5.12,0-8.533,3.413-8.533,8.533V459.8c0,14.507,11.093,25.6,25.6,25.6h17.067c5.12,0,8.533-3.413,8.533-8.533
				S149.187,468.333,144.067,468.333z"/>
				<path d="M255,468.333h-17.067c-5.12,0-8.533-3.413-8.533-8.533v-17.067c0-5.12-3.413-8.533-8.533-8.533
				c-5.12,0-8.533,3.413-8.533,8.533V459.8c0,14.507,11.093,25.6,25.6,25.6H255c5.12,0,8.533-3.413,8.533-8.533
				S260.12,468.333,255,468.333z"/>
				<path d="M374.467,468.333H357.4c-5.12,0-8.533-3.413-8.533-8.533v-17.067c0-5.12-3.413-8.533-8.533-8.533
				s-8.533,3.413-8.533,8.533V459.8c0,14.507,11.093,25.6,25.6,25.6h17.067c5.12,0,8.533-3.413,8.533-8.533
				S379.587,468.333,374.467,468.333z"/>
				<path d="M412.867,132.973c-7.68-5.973-12.8-16.213-12.8-27.307V101.4c9.387,0,17.067-7.68,17.067-17.067V50.2
				c0-9.387-7.68-17.067-17.067-17.067H331.8c-9.387,0-17.067,7.68-17.067,17.067v34.133c0,9.387,7.68,17.067,17.067,17.067v3.413
				c0,9.647-3.231,18.646-9.684,24.757c-2.716-12.275-10.12-23.351-20.182-30.73c-7.68-5.973-12.8-16.213-12.8-27.307v-4.267
				c9.387,0,17.067-7.68,17.067-17.067V16.067C306.2,6.68,298.52-1,289.133-1h-68.267C211.48-1,203.8,6.68,203.8,16.067V50.2
				c0,9.387,7.68,17.067,17.067,17.067v4.267c0,11.093-4.267,21.333-12.8,27.307c-10.85,7.459-17.91,18.696-20.359,31.13
				c-5.811-6.099-9.507-14.889-9.507-24.304V101.4c9.387,0,17.067-7.68,17.067-17.067V50.2c0-9.387-7.68-17.067-17.067-17.067
				h-68.267c-9.387,0-17.067,7.68-17.067,17.067v34.133c0,9.387,7.68,17.067,17.067,17.067v4.267c0,11.093-5.12,21.333-12.8,27.307
				C83.48,142.36,75.8,157.72,75.8,173.933v21.333v119.467V485.4c0,14.507,11.093,25.6,25.6,25.6h93.867h119.467H408.6
				c14.507,0,25.6-11.093,25.6-25.6V314.733V195.267v-21.333C434.2,157.72,425.667,142.36,412.867,132.973z M331.8,50.2h68.267
				v34.133h-8.533h-51.2H331.8V50.2z M348.867,105.667V101.4H383v4.267c0,16.213,7.68,31.573,20.48,40.96
				c8.533,5.973,13.653,16.213,13.653,27.307v12.8h-93.867v-25.6v-9.387c1.707-1.707,3.413-3.413,5.12-5.12
				C341.187,137.24,348.867,121.88,348.867,105.667z M417.133,306.2h-93.867v-25.6v-76.8h93.867V306.2z M92.867,203.8h93.867v76.8
				v25.6H92.867V203.8z M203.8,195.267v-25.6h102.4v25.6v76.8H203.8V195.267z M220.867,16.067h68.267V50.2H280.6h-51.2h-8.533
				V16.067z M203.8,139.8c0-10.24,5.12-20.48,13.653-27.307c12.8-9.387,20.48-24.747,20.48-40.96v-4.267h34.133v4.267
				c0,16.213,7.68,31.573,20.48,40.96c8.533,5.973,13.653,16.213,13.653,27.307v8.533v4.267H203.8v-3.413V139.8z M109.933,50.2
				H178.2v34.133h-8.533h-51.2h-8.533V50.2z M106.52,146.627c12.8-9.387,20.48-24.747,20.48-40.96V101.4h34.133v4.267
				c0,16.213,7.68,31.573,20.48,40.96c1.707,1.707,3.413,3.413,5.12,5.12v9.387v25.6H92.867v-12.8
				C92.867,163.693,97.987,153.453,106.52,146.627z M92.867,485.4V323.267h93.867v170.667H101.4
				C96.28,493.933,92.867,490.52,92.867,485.4z M203.8,314.733v-25.6h102.4v25.6v179.2H203.8V314.733z M408.6,493.933h-85.333
				V323.267h93.867V485.4C417.133,490.52,413.72,493.933,408.6,493.933z"/>
			</g>
		</g>
	</g>
</svg>